<?xml version="1.0" encoding="UTF-8" standalone="no"?><!DOCTYPE svg PUBLIC "-//W3C//DTD SVG 1.1//EN" "http://www.w3.org/Graphics/SVG/1.1/DTD/svg11.dtd"><svg width="100%" height="100%" viewBox="0 0 6667 2084" version="1.1" xmlns="http://www.w3.org/2000/svg" xmlns:xlink="http://www.w3.org/1999/xlink" xml:space="preserve" xmlns:serif="http://www.serif.com/" style="fill-rule:evenodd;clip-rule:evenodd;stroke-linejoin:round;stroke-miterlimit:2;"><rect id="Artboard2" x="0" y="0" width="6666.67" height="2083.33" style="fill:none;"/><path d="M1658.11,1864.3l-0.02,-0.012l-708.334,-425c-5.02,-3.013 -8.091,-8.438 -8.091,-14.292l0,-850l0.086,-1.703l0.232,-1.54l0.572,-2.125l0.357,-0.957l1.003,-2.03l0.598,-0.961l1.142,-1.505l1.491,-1.535l1.216,-0.998l0.574,-0.408l0.82,-0.53l708.334,-425c5.278,-3.166 11.872,-3.166 17.15,0l708.333,425l1.256,0.831l0.536,0.411l1.648,1.502l0.693,0.766l1.243,1.663l0.763,1.29l0.313,0.625l0.795,1.971l0.299,1.01l0.41,2.119l0.12,1.375l0.016,0.729l0,850c0,5.854 -3.072,11.279 -8.092,14.292l-708.333,425l-0.021,0.012c-2.424,1.454 -5.248,2.309 -8.267,2.36l-0.18,0.002l-0.107,0.001l-0.16,-0.001l-0.127,-0.002c-3.018,-0.051 -5.842,-0.906 -8.268,-2.36Zm3333.33,0l-0.021,-0.012l-708.333,-425c-5.02,-3.013 -8.092,-8.438 -8.092,-14.292l0,-850l0.086,-1.703l0.232,-1.54l0.572,-2.125l0.357,-0.957l1.004,-2.03l0.597,-0.961l1.143,-1.505l1.49,-1.535l1.216,-0.998l0.575,-0.408l0.82,-0.53l708.333,-425c5.278,-3.166 11.872,-3.166 17.15,0l708.333,425l1.257,0.831l0.535,0.411l1.648,1.502l0.693,0.766l1.243,1.663l0.763,1.29l0.313,0.625l0.795,1.971l0.3,1.01l0.41,2.119l0.12,1.375l0.015,0.729l0,850c0,5.854 -3.072,11.279 -8.092,14.292l-708.333,425l-0.021,0.012c-2.424,1.454 -5.248,2.309 -8.267,2.36l-0.159,0.002c-0.043,0.001 -0.086,0.001 -0.128,0.001l-0.159,-0.001l-0.128,-0.002c-3.018,-0.051 -5.842,-0.906 -8.267,-2.36Zm-3308.11,-854.867l0,811.126l675,-405l0,-811.126l-675,405Zm3333.33,0l0,811.126l675,-405l0,-811.126l-675,405Zm-33.334,0l-675,-405l0,811.126l675,405l0,-811.126Zm-3333.33,0l-675,-405l0,811.126l675,405l0,-811.126Zm2416.67,223.896l0,-58.333l100,75l-100,75l0,-58.333l-1483.33,0c-9.198,0 -16.666,-7.468 -16.666,-16.667c0,-9.199 7.468,-16.667 16.666,-16.667l1483.33,0Zm-3075.94,-658.333l675.939,405.563l675.939,-405.563l-675.939,-405.563l-675.939,405.563Zm3333.33,0l675.939,405.563l675.939,-405.563l-675.939,-405.563l-675.939,405.563Zm-1724.06,241.667l1483.33,0c9.199,0 16.667,7.468 16.667,16.666c0,9.199 -7.468,16.667 -16.667,16.667l-1483.33,0l0,58.333l-100,-75l100,-75l0,58.334Z" style="fill-opacity:0.45;"/></svg>