<?xml version="1.0" encoding="UTF-8" standalone="no"?><!DOCTYPE svg PUBLIC "-//W3C//DTD SVG 1.1//EN" "http://www.w3.org/Graphics/SVG/1.1/DTD/svg11.dtd"><svg width="100%" height="100%" viewBox="0 0 3334 2084" version="1.1" xmlns="http://www.w3.org/2000/svg" xmlns:xlink="http://www.w3.org/1999/xlink" xml:space="preserve" xmlns:serif="http://www.serif.com/" style="fill-rule:evenodd;clip-rule:evenodd;stroke-linejoin:round;stroke-miterlimit:2;"><rect id="Artboard1" x="0" y="0" width="3333.68" height="2083.33" style="fill:none;"/><path d="M1665.23,1866.67l-0.18,-0.002c-3.018,-0.051 -5.842,-0.906 -8.267,-2.36l-0.021,-0.012l-708.333,-425c-5.02,-3.013 -8.092,-8.438 -8.092,-14.292l0,-850l0.086,-1.703l0.233,-1.54l0.571,-2.125l0.358,-0.957l1.003,-2.03l0.597,-0.961l1.143,-1.505l1.49,-1.535l1.217,-0.998l0.574,-0.408l0.82,-0.53l708.333,-425c5.278,-3.166 11.872,-3.166 17.15,0l708.333,425l1.257,0.831l0.535,0.411l1.648,1.502l0.693,0.766l1.243,1.663l0.763,1.29l0.314,0.625l0.794,1.971l0.3,1.01l0.41,2.119l0.12,1.375l0.015,0.729l0,850c0,5.854 -3.071,11.279 -8.092,14.292l-708.333,425l-0.02,0.012c-2.425,1.454 -5.249,2.309 -8.268,2.36l-0.159,0.002c-0.043,0.001 -0.085,0.001 -0.128,0.001c0,0 -0.107,-0.001 -0.107,-0.001Zm16.774,-857.229l0,811.126l675,-405l0,-811.126l-675,405Zm-33.333,0l-675,-405l0,811.126l675,405l0,-811.126Zm-659.273,-434.437l675.939,405.563l675.939,-405.563l-675.939,-405.563l-675.939,405.563Z" style="fill-opacity:0.45;"/></svg>